<svg xmlns="http://www.w3.org/2000/svg" width="31" height="31" fill="none" viewBox="0 0 31 31">
  <path fill="#000" d="M20.508 15.671c3.002 0 5.468-2.377 5.468-5.324l.024-.023C26 7.4 23.56 5 20.556 5c-3.027 0-5.517 2.376-5.517 5.324-.024 2.922 2.466 5.347 5.469 5.347ZM10.433 30.595c.155.134.307.268.457.405v-.023h.097c.049-.072.098-.143.146-.19.562-.547 1.123-1.118 1.71-1.664.463-.452.756-.975.83-1.593a2.638 2.638 0 0 0-1.417-2.685 2.754 2.754 0 0 0-3.1.38c-.268.237-.537.523-.805.76-.415.357-1.001.333-1.343-.023-.366-.357-.366-.927 0-1.308.22-.213.415-.427.635-.617.049-.072.17-.072.244-.072.732.167 1.367 0 1.953-.451 2.758-2.091 5.541-4.207 8.3-6.298.044-.029.088-.057.133-.091a.985.985 0 0 0 .086-.075c-2.392-.785-3.955-2.353-4.784-4.658-.05.047-.074.095-.074.095a2746.087 2746.087 0 0 1-6.64 8.294c-.414.523-.536 1.117-.39 1.782.024.095 0 .214-.049.262-.11.12-.234.24-.357.359a9.304 9.304 0 0 0-.35.353c-.733.785-.929 1.95-.465 2.9.782 1.664 3.003 2.044 4.395.76l.659-.641c.214-.196.488-.284.751-.265a.942.942 0 0 1 .591.265c.39.357.39.903 0 1.307-.149.16-.309.311-.465.458l-.218.208-1.367 1.33c.281.259.563.498.837.736Z"/>
</svg>
