<svg xmlns="http://www.w3.org/2000/svg" width="61" height="63" fill="none" viewBox="0 0 61 63">
  <path fill="#000" d="M54.977 32.126c-.62.324-1.241.746-1.894.94-3.624 1.038-4.539 5.287-1.992 7.785 1.404 1.362 1.502 3.438.327 5.125a20.435 20.435 0 0 1-5.257 5.19c-1.633 1.102-3.723.973-5.094-.422-2.416-2.433-6.694-1.622-7.771 1.978-.686 2.206-2.416 3.276-4.735 2.952a24.55 24.55 0 0 1-6.432-1.752c-1.992-.843-2.939-2.627-2.514-4.768.783-3.795-1.894-6.422-5.714-5.676-2.156.422-4.05-.486-4.768-2.497-.718-2.012-1.306-4.087-1.698-6.163-.49-2.53.588-4.152 3.037-4.995 3.07-1.038 4.212-4.217 2.482-6.877-.262-.39-.62-.681-.882-1.038-1.143-1.524-1.208-3.308-.065-4.898a20.436 20.436 0 0 1 5.257-5.19c1.567-1.07 3.69-.908 5.028.422 2.482 2.498 6.759 1.622 7.836-1.978.588-1.979 2.188-3.114 4.147-2.984 2.613.194 5.094.875 7.445 1.978 1.73.844 2.482 2.628 2.057 4.671-.424 1.946.098 3.568 1.698 4.833 1.175.908 2.514 1.103 3.918.778 1.241-.291 2.45-.162 3.429.65.587.486 1.208 1.134 1.436 1.816.686 2.108 1.306 4.281 1.764 6.454.326 1.427-.196 2.66-1.045 3.698v-.032Zm-18.612-5.32a6.614 6.614 0 0 0-9.371 0c-2.645 2.627-2.645 6.747 0 9.374 2.645 2.595 6.791 2.595 9.436-.065 2.612-2.595 2.58-6.714-.065-9.309Z"/>
</svg>
