<svg xmlns="http://www.w3.org/2000/svg" width="61" height="63" fill="none" viewBox="0 0 61 63">
  <path fill="#000" d="M23.175 30.198c5.204-.25 9.317-4.509 9.276-9.639l-.04-.04c-.085-5.462-4.45-9.599-9.992-9.518-5.204.085-9.57 4.553-9.444 9.764.127 5.583 4.87 9.68 10.2 9.433ZM6.89 52h31.73c.605 0 1.099-.186 1.425-.521.307-.315.465-.76.424-1.3-.084-1.241-.168-2.526-.463-3.766-2.267-9.473-11.46-15.14-21.071-13.153C10.96 34.912 5 42.11 5 50.138 5 51.338 5.672 52 6.89 52Zm36.768-4.8c-.838-4.883-3.064-9.06-6.841-12.41a11.938 11.938 0 0 1 3.904-1.53c6.757-1.285 13.178 2.646 14.9 9.223.252.993.336 2.068.377 3.102.043.913-.67 1.697-1.594 1.697H43.742l-.045-.008-.08-.033.041-.04ZM36.02 23.868c0 3.97 3.188 7.158 7.22 7.158l-.043.04c4.03 0 7.261-3.143 7.261-7.073a7.182 7.182 0 0 0-1.92-4.925 7.138 7.138 0 0 0-5.257-2.274c-4.03 0-7.261 3.143-7.261 7.074Z"/>
</svg>
