<svg xmlns="http://www.w3.org/2000/svg" width="31" height="31" fill="none" viewBox="0 0 31 31">
  <path fill="#000" d="M5.51 15.281v-.083c0-.028 0-.083.028-.111.055-.333.33-.528.551-.75 2.896-2.667 5.791-5.333 8.687-7.972.524-.5 1.075-.473 1.6 0 .66.61 1.323 1.222 1.984 1.805 2.29 2.111 4.578 4.195 6.867 6.306.11.11.22.222.303.36.386.695-.11 1.529-.965 1.556h-1.351l-.028.028v8.167c0 .472-.22.694-.662.694H17.7c-.442 0-.662-.25-.662-.666V19.67h-2.923v4.917c0 .416-.22.722-.717.722H8.68c-.496 0-.744-.278-.717-.75v-8.111l-.027-.028h-1.35c-.552 0-.938-.305-1.048-.805 0-.056 0-.084-.028-.14v-.194Z"/>
  <path fill="#696666" d="M5.51 15.087h.028c0 .028 0 .083-.028.111v-.111Z"/>
  <path fill="#5A5958" d="M5.538 15.559H5.51v-.14c0 .056 0 .084.028.14Z"/>
  <path fill="#000" d="M23.628 11.365c-1.545-1.417-3.034-2.778-4.55-4.167h3.86c.469 0 .69.222.69.695v3.5-.028Z"/>
</svg>
