<svg xmlns="http://www.w3.org/2000/svg" width="930" height="1028" fill="none" viewBox="0 0 930 1028">
  <path fill="#FF8001" d="M803.726 188.284 826.679 174l14.284 22.954-22.953 14.283z"/>
  <path fill="#1FAD96" d="m875.042 650.165-6.97-26.121 26.122-6.97 6.97 26.122zM162.057 97.052a6 6 0 0 1 8.483.199l4.604 4.825a4.5 4.5 0 1 0 6.511-6.213l-4.603-4.825a6 6 0 0 1 .199-8.483l4.825-4.603a4.5 4.5 0 1 0-6.213-6.512l-4.825 4.604a6 6 0 0 1-8.483-.2l-4.603-4.825a4.5 4.5 0 0 0-6.362-.15 4.499 4.499 0 0 0-.15 6.363l4.604 4.825a6 6 0 0 1-.2 8.483l-4.825 4.604a4.5 4.5 0 1 0 6.213 6.511l4.825-4.603Z"/>
  <circle cx="111.5" cy="374.5" r="17.5" stroke="#FF8001" stroke-width="12"/>
</svg>
