<svg xmlns="http://www.w3.org/2000/svg" width="930" height="1028" fill="none" viewBox="0 0 930 1028">
  <g clip-path="url(#a)">
    <path fill="#1FAD96" fill-rule="evenodd" d="M801.016 435.961a5 5 0 0 1 2.845 6.473l-2.243 5.762a3.377 3.377 0 0 0 6.294 2.451l2.243-5.763a5 5 0 0 1 6.473-2.845l5.762 2.243a3.376 3.376 0 1 0 2.45-6.293l-5.762-2.244a5 5 0 0 1-2.846-6.473l2.244-5.762a3.378 3.378 0 0 0-6.294-2.45l-2.243 5.762a5.001 5.001 0 0 1-6.473 2.846l-5.762-2.244a3.377 3.377 0 1 0-2.45 6.294l5.762 2.243Z" clip-rule="evenodd"/>
    <circle cx="692.071" cy="100.5" r="13.5" stroke="#1FAD96" stroke-width="7"/>
    <path fill="#1FAD96" d="M1.545 720.698c-.371-3.831 3.544-6.627 7.047-5.033l22.42 10.199c3.504 1.594 3.968 6.383.837 8.62l-20.044 14.317c-3.132 2.237-7.511.245-7.883-3.586l-2.377-24.517Z"/>
    <rect width="31" height="31" x="26.842" y="209" fill="#1FAD96" rx="5" transform="rotate(17.401 26.842 209)"/>
  </g>
  <defs>
    <clipPath id="a">
      <path fill="#fff" d="M0 0h929.571v1028H0z"/>
    </clipPath>
  </defs>
</svg>
