<svg width="179" height="28" viewBox="0 0 179 28" fill="none" xmlns="http://www.w3.org/2000/svg">
<path fill-rule="evenodd" clip-rule="evenodd" d="M16.7768 2.05157C16.0001 3.2749 15.6216 4.7344 15.6992 6.20739L15.7487 6.16789C15.7487 9.58725 17.0617 10.9024 18.9446 10.9024C19.3851 10.9086 19.822 10.8157 20.2263 10.6298C20.6306 10.444 20.9933 10.1693 21.2905 9.82397C21.5877 9.47866 21.8127 9.07038 21.9506 8.62611C22.0886 8.18183 22.1364 7.7116 22.0909 7.24634C22.0909 5.36567 21.2362 3.86648 19.2542 3.86648C18.556 3.88668 17.8741 4.09485 17.2723 4.47143C17.3309 3.95728 17.4959 3.46328 17.7554 3.02475C18.1509 2.42996 18.7898 2.2489 20.7521 1.69283L20.7566 1.69156L21.1355 1.584C21.2745 1.5445 21.4195 1.50318 21.5706 1.45981V0C21.3996 0.0476701 21.2352 0.0931018 21.077 0.136598L20.7855 0.216693L20.6208 0.261701L20.6091 0.264968C18.3714 0.877662 17.5209 1.11051 16.7768 2.05157ZM19.0065 5.12895C20.2081 5.12895 20.5673 6.19421 20.5673 7.35154H20.5797C20.5797 8.61407 20.0099 9.63982 18.9322 9.63982C17.8545 9.63982 17.2104 8.58775 17.2104 6.28628V5.70764C17.7541 5.35847 18.3717 5.1595 19.0065 5.12895Z" fill="#231F20"/>
<path d="M0.475433 0.743363H2.04308V5.06906H2.06877L5.55099 0.743363H7.38847L3.39227 5.58871L7.60691 10.6549H5.70518L2.06877 6.25119H2.04308V10.6549H0.475433V0.743363Z" fill="#231F20"/>
<path d="M12.373 10.8961C11.367 13.7476 10.2603 14.1235 9.05308 14.1235C8.55594 14.1312 8.06291 14.0296 7.60691 13.8254L7.98417 12.5292C8.29537 12.6951 8.63986 12.7839 8.9902 12.7884C9.8076 12.7884 10.4615 12.2181 11.0023 10.5072L7.9213 3.46903H9.54352L11.6939 8.65369L13.3916 3.46903H14.9761L12.373 10.8961Z" fill="#231F20"/>
<path fill-rule="evenodd" clip-rule="evenodd" d="M27.4919 10.0093C26.9683 10.5694 26.2571 10.8889 25.5123 10.8988C25.2285 10.9166 24.9443 10.873 24.677 10.7707C24.4096 10.6684 24.1649 10.5096 23.9576 10.3039C23.7503 10.0983 23.5849 9.85004 23.4714 9.57449C23.3579 9.29893 23.2988 9.00178 23.2976 8.70124C23.2828 8.29357 23.3831 7.89049 23.5858 7.54337C23.7886 7.19625 24.0845 6.92081 24.4359 6.75227C24.982 6.50116 25.5726 6.3763 26.168 6.38598H27.4053V6.08513C27.4053 5.14335 26.8485 4.77711 26.0443 4.77711C25.4113 4.77983 24.7909 4.96525 24.2503 5.3134L23.7306 4.26696C24.491 3.7712 25.3616 3.49595 26.2546 3.46903C27.9373 3.46903 28.8776 4.29309 28.8776 6.08513V8.70124C28.846 9.37987 28.8875 10.06 29.0013 10.7287H27.7146L27.4919 10.0093ZM26.366 7.39322C25.9909 7.38336 25.6185 7.46388 25.2772 7.62866C25.1264 7.72031 25.0026 7.85449 24.9196 8.01613C24.8366 8.17778 24.7976 8.36059 24.807 8.54426C24.801 8.69592 24.8259 8.84722 24.8799 8.98781C24.934 9.12846 25.016 9.25513 25.1205 9.35931C25.2249 9.46354 25.3492 9.54279 25.4852 9.59173C25.6211 9.64067 25.7653 9.65815 25.9082 9.64303C26.4622 9.61919 26.9876 9.37643 27.3805 8.96288V7.39322H26.366Z" fill="#231F20"/>
<path d="M32.1856 3.46903H30.6653V10.6549H32.1856V7.52092H35.1005V10.6549H36.6082V3.46903H35.1005V6.14406H32.1856V3.46903Z" fill="#231F20"/>
<path d="M38.0359 7.22371C38.0228 6.73128 38.1022 6.24109 38.2691 5.78266C38.4361 5.32423 38.6873 4.90705 39.0074 4.55624C39.3276 4.20543 39.7102 3.92837 40.1322 3.74156C40.5542 3.55481 41.0068 3.46225 41.4628 3.46945C42.0738 3.45935 42.6767 3.62105 43.2124 3.93877V5.24232C42.7291 4.91437 42.1658 4.75092 41.5955 4.77306C41.3047 4.77312 41.0171 4.83924 40.7515 4.96713C40.4859 5.09501 40.2481 5.28176 40.0535 5.51527C39.859 5.74878 39.712 6.02385 39.6222 6.3227C39.5324 6.62148 39.5017 6.93733 39.5322 7.24978C39.5322 8.80106 40.3165 9.67442 41.511 9.67442C42.0648 9.67098 42.6072 9.50419 43.0797 9.1921L43.502 10.2741C42.8551 10.6975 42.1104 10.9145 41.3542 10.8998C40.9079 10.9196 40.4627 10.8371 40.0481 10.6576C39.6335 10.478 39.2588 10.2057 38.9487 9.85833C38.6386 9.51103 38.4001 9.09664 38.249 8.6425C38.0979 8.18842 38.0376 7.70483 38.0721 7.22371H38.0359Z" fill="#231F20"/>
<path d="M46.2337 3.65214H44.6906V10.6549H46.2082V7.67198H47.3177C47.5217 7.67198 47.7258 7.86405 47.9681 8.37608L48.9246 10.6549H50.6335L49.3582 8.00482C49.1159 7.50556 48.8991 7.22395 48.5292 7.10871C48.9318 6.87102 49.0998 6.35379 49.2571 5.86965C49.354 5.57153 49.4468 5.28599 49.5877 5.086C49.6455 5.00566 49.7225 4.94123 49.8117 4.89871C49.9009 4.85618 49.9993 4.83694 50.0978 4.84275C50.2205 4.82472 50.3451 4.82472 50.4677 4.84275V3.56255C50.2565 3.50067 50.0373 3.47048 49.8173 3.47296C49.5669 3.45408 49.3162 3.50363 49.0917 3.61633C48.8671 3.72903 48.6772 3.90066 48.542 4.11306C48.3343 4.4234 48.2052 4.82091 48.0814 5.20185C47.863 5.87376 47.6614 6.4942 47.0754 6.4942H46.2337V3.65214Z" fill="#231F20"/>
<path d="M51.822 3.46903H53.2561V8.47814C53.4627 8.09786 53.7544 7.59957 54.1555 6.98324L56.3552 3.46903H57.7649V10.6549H56.3552V5.64576C56.1607 5.99978 55.8569 6.52433 55.468 7.14065L53.2075 10.6549H51.822V3.46903Z" fill="#231F20"/>
<path d="M61.7185 0H60.4549C60.4549 0.653467 60.7027 1.28014 61.1438 1.7422C61.5849 2.20426 62.1832 2.46384 62.807 2.46384C63.4308 2.46384 64.0291 2.20426 64.4702 1.7422C64.9113 1.28014 65.1591 0.653467 65.1591 0H63.908C63.908 0.720798 63.6453 1.31056 62.8195 1.31056C61.9938 1.31056 61.7185 0.681476 61.7185 0Z" fill="#231F20"/>
<path d="M61.143 3.47296H59.6667L59.6792 10.6549H61.1305L63.4576 7.14259C63.8705 6.52663 64.1708 6.00238 64.3709 5.64854C64.3429 6.15047 64.3429 6.65373 64.3709 7.15565V10.6549H65.8473V3.47296H64.4085L62.0688 6.9853C61.6685 7.60126 61.3557 8.09926 61.143 8.47935V3.47296Z" fill="#231F20"/>
<path d="M70.8393 3.46903H75.5936L75.1491 4.87209H72.3335V10.6549H70.8393V3.46903Z" fill="#231F20"/>
<path fill-rule="evenodd" clip-rule="evenodd" d="M76.4841 5.61817C76.3355 6.08211 76.2794 6.57375 76.3192 7.06195C76.2794 7.55014 76.3355 8.04178 76.4841 8.50572C76.6326 8.9696 76.8703 9.39566 77.1821 9.75682C77.4938 10.1179 77.8729 10.4063 78.2951 10.6036C78.7173 10.8008 79.1735 10.9027 79.6348 10.9027C80.0961 10.9027 80.5523 10.8008 80.9745 10.6036C81.3967 10.4063 81.7758 10.1179 82.0875 9.75682C82.3993 9.39566 82.637 8.9696 82.7855 8.50572C82.9341 8.04178 82.9902 7.55014 82.9504 7.06195C82.9902 6.57375 82.9341 6.08211 82.7855 5.61817C82.637 5.1543 82.3993 4.72823 82.0875 4.36708C81.7758 4.00598 81.3967 3.7176 80.9745 3.52039C80.5523 3.32311 80.0961 3.22124 79.6348 3.22124C79.1735 3.22124 78.7173 3.32311 78.2951 3.52039C77.8729 3.7176 77.4938 4.00598 77.1821 4.36708C76.8703 4.72823 76.6326 5.1543 76.4841 5.61817ZM79.6472 4.59496C80.7773 4.59496 81.4106 5.62398 81.4106 7.06195C81.4106 8.5131 80.7897 9.55531 79.6472 9.55531C78.5048 9.55531 77.859 8.49991 77.859 7.06195C77.859 5.62398 78.5172 4.59496 79.6472 4.59496Z" fill="#231F20"/>
<path d="M84.1602 7.21724C84.1466 6.72572 84.2293 6.23637 84.4033 5.77873C84.5773 5.32108 84.839 4.90463 85.1727 4.55449C85.5064 4.20434 85.9051 3.9277 86.3449 3.74125C86.7846 3.55481 87.2563 3.46243 87.7315 3.46963C88.3684 3.45771 88.9972 3.61924 89.5548 3.9381V5.23935C89.0617 4.8932 88.4781 4.71153 87.8823 4.71885C87.5787 4.71692 87.2781 4.78153 87.0003 4.90851C86.7225 5.03542 86.4739 5.22187 86.2707 5.45544C86.0676 5.68895 85.9146 5.96445 85.8217 6.26359C85.7289 6.5628 85.6983 6.87895 85.7321 7.19122C85.7321 8.73972 86.5369 9.61157 87.7943 9.61157C88.371 9.60492 88.9354 9.43868 89.429 9.13009L89.8566 10.2102C89.184 10.6653 88.3967 10.9052 87.5931 10.8998C87.1275 10.9195 86.6632 10.837 86.2305 10.658C85.7978 10.4789 85.4066 10.2072 85.0824 9.86075C84.7583 9.51423 84.5086 9.10081 84.3497 8.64752C84.1907 8.19417 84.1262 7.71124 84.1602 7.2303V7.21724Z" fill="#231F20"/>
<path d="M91.3077 14.1235C92.5191 14.1235 93.6295 13.7494 94.639 10.9117L97.2258 3.46903H95.6485L93.945 8.62859L91.7998 3.46903H90.1594L93.2636 10.5247C92.721 12.2274 92.0648 12.7949 91.2446 12.7949C90.8928 12.7923 90.5467 12.7039 90.2351 12.5369L89.8566 13.8268C90.3141 14.0301 90.8089 14.1312 91.3077 14.1235Z" fill="#231F20"/>
<path fill-rule="evenodd" clip-rule="evenodd" d="M97.7012 9.33257H98.1376C99.1227 8.02666 99.5965 6.53794 100.12 3.46903H104.073V9.33257H105.07V13.1327H103.674V10.6254H99.1351V13.1327H97.7261L97.7012 9.33257ZM102.577 4.77493H101.205C101.019 6.372 100.527 7.91329 99.7586 9.30643H102.577V4.77493Z" fill="#231F20"/>
<path fill-rule="evenodd" clip-rule="evenodd" d="M109.285 10.6607C109.623 10.5065 109.93 10.2818 110.187 9.99977L110.495 10.7269H111.726C111.613 10.0511 111.572 9.3636 111.603 8.67777V6.11308C111.603 4.30192 110.655 3.46909 108.992 3.46909C108.101 3.46576 107.225 3.71669 106.454 4.19618L106.959 5.25375C107.501 4.90022 108.123 4.7128 108.758 4.71172C109.558 4.71172 110.113 5.08188 110.113 6.03377V6.33782H108.881C108.288 6.32802 107.7 6.45421 107.156 6.70799C106.806 6.87834 106.512 7.15674 106.31 7.50755C106.108 7.85836 106.008 8.26574 106.023 8.67777C106.022 8.98085 106.08 9.2809 106.191 9.55936C106.303 9.83782 106.466 10.0888 106.672 10.2969C106.877 10.5049 107.12 10.6656 107.386 10.7691C107.651 10.8726 107.934 10.9168 108.215 10.8987C108.583 10.8959 108.946 10.8151 109.285 10.6607ZM107.994 7.5937C108.334 7.42722 108.704 7.34585 109.078 7.35577H110.088V8.94213C109.697 9.36015 109.174 9.60546 108.622 9.6296C108.479 9.6472 108.335 9.63111 108.199 9.58247C108.062 9.53383 107.938 9.4538 107.833 9.34805C107.729 9.24225 107.647 9.11327 107.594 8.97008C107.541 8.82689 107.517 8.67299 107.526 8.51909C107.513 8.33301 107.551 8.14705 107.634 7.98304C107.717 7.8191 107.842 7.68402 107.994 7.5937Z" fill="#231F20"/>
<path fill-rule="evenodd" clip-rule="evenodd" d="M113.39 3.94549C114.195 3.64682 115.043 3.49274 115.897 3.4899C116.385 3.43388 116.878 3.49099 117.341 3.65711C117.805 3.82322 118.227 4.09418 118.577 4.45044C118.928 4.80669 119.197 5.23929 119.367 5.71696C119.536 6.19469 119.602 6.70551 119.558 7.21264C119.588 7.7064 119.518 8.20131 119.352 8.66519C119.186 9.12906 118.928 9.55144 118.595 9.90503C118.261 10.2586 117.86 10.5353 117.417 10.7173C116.974 10.8993 116.499 10.9824 116.023 10.9613C115.646 10.9599 115.273 10.8895 114.92 10.7531V14.3717H113.416L113.39 3.94549ZM115.897 9.60764C117.264 9.60764 117.978 8.64444 117.978 7.16055C118.014 6.85112 117.984 6.53727 117.889 6.24157C117.794 5.94581 117.638 5.67558 117.43 5.4503C117.223 5.22502 116.97 5.05025 116.69 4.93857C116.41 4.8269 116.109 4.78116 115.81 4.80458C115.5 4.8004 115.192 4.84426 114.895 4.93476V9.41242C115.207 9.57092 115.55 9.65119 115.897 9.64672V9.60764Z" fill="#231F20"/>
<path d="M120.775 5.77873C120.601 6.23631 120.518 6.72566 120.532 7.21724V7.23024C120.496 7.71051 120.559 8.1932 120.716 8.64655C120.873 9.09984 121.122 9.51351 121.445 9.8602C121.768 10.2069 122.159 10.4788 122.591 10.658C123.023 10.8372 123.486 10.9196 123.951 10.8998C124.758 10.9024 125.549 10.6629 126.227 10.2101L125.787 9.13009C125.299 9.43995 124.738 9.60637 124.165 9.61151C122.908 9.61151 122.091 8.73972 122.091 7.19122C122.059 6.87822 122.091 6.56183 122.186 6.26263C122.28 5.96342 122.434 5.68823 122.638 5.4549C122.842 5.22157 123.092 5.03542 123.37 4.90863C123.648 4.78177 123.949 4.7171 124.253 4.71885C124.849 4.71153 125.432 4.8932 125.925 5.23935V3.9381C125.368 3.61924 124.739 3.45771 124.102 3.46963C123.627 3.46243 123.156 3.55481 122.716 3.74125C122.276 3.9277 121.878 4.20434 121.544 4.55449C121.21 4.90463 120.949 5.32108 120.775 5.77873Z" fill="#231F20"/>
<path d="M107.457 20.8456C107.444 20.354 107.526 19.8646 107.7 19.407C107.874 18.9494 108.136 18.533 108.47 18.1828C108.803 17.8327 109.202 17.556 109.642 17.3696C110.081 17.1831 110.553 17.0908 111.028 17.098C111.665 17.086 112.293 17.2476 112.851 17.5664V18.8677C112.358 18.5215 111.774 18.3399 111.179 18.3472C110.875 18.3454 110.574 18.4101 110.295 18.5369C110.017 18.6637 109.768 18.8499 109.564 19.0832C109.36 19.3165 109.205 19.5917 109.111 19.8909C109.017 20.1902 108.985 20.5065 109.016 20.8195C109.016 22.368 109.834 23.2398 111.091 23.2398C111.664 23.2347 112.224 23.0683 112.713 22.7584L113.153 23.8384C112.475 24.2912 111.684 24.5307 110.877 24.5281C110.412 24.5479 109.948 24.4655 109.516 24.2863C109.084 24.1071 108.694 23.8352 108.371 23.4885C108.048 23.1418 107.799 22.7282 107.642 22.2749C107.484 21.8215 107.421 21.3388 107.457 20.8586V20.8456Z" fill="#231F20"/>
<path d="M126.94 4.80651H129.002V10.6549H130.47V4.80651H132.483L132.883 3.46903H126.94V4.80651Z" fill="#231F20"/>
<path fill-rule="evenodd" clip-rule="evenodd" d="M134.134 3.46903H136.743C138.777 3.46903 139.427 4.48244 139.427 5.40366C139.437 5.76318 139.328 6.11532 139.119 6.39904C138.909 6.6827 138.612 6.87998 138.278 6.95669C138.638 7.03085 138.962 7.23641 139.193 7.53732C139.423 7.83816 139.546 8.21504 139.539 8.60179C139.539 9.60201 138.877 10.6549 136.805 10.6549H134.072L134.134 3.46903ZM136.843 9.52301C137.667 9.52301 138.091 9.19403 138.091 8.5491C138.091 7.90422 137.692 7.57525 136.955 7.57525H135.557V9.52301H136.843ZM136.843 6.48289C137.567 6.48289 137.941 6.18017 137.941 5.56161C137.941 4.94305 137.529 4.65352 136.693 4.65352H135.52V6.5092L136.843 6.48289Z" fill="#231F20"/>
<path fill-rule="evenodd" clip-rule="evenodd" d="M142.176 8.3863C142.077 8.12732 142.031 7.84977 142.042 7.5715H146.433V7.19619C146.433 4.90554 145.348 3.46903 143.502 3.46903C141.656 3.46903 140.508 5.03494 140.508 7.17029C140.459 7.65685 140.511 8.14874 140.663 8.61195C140.815 9.07516 141.062 9.49863 141.387 9.85313C141.712 10.2076 142.107 10.4845 142.546 10.6648C142.984 10.8452 143.455 10.9246 143.926 10.8975C144.743 10.9045 145.546 10.676 146.246 10.2375L145.797 9.1633C145.274 9.47921 144.68 9.64454 144.075 9.64212C143.807 9.65864 143.539 9.61671 143.288 9.51901C143.036 9.42131 142.808 9.27002 142.616 9.07492C142.424 8.87982 142.274 8.64528 142.176 8.3863ZM143.489 4.68552C144.45 4.68552 144.899 5.56554 144.899 6.47145H142.03C142.007 6.25379 142.028 6.03371 142.09 5.82446C142.152 5.61527 142.255 5.42132 142.391 5.25436C142.527 5.08739 142.695 4.95085 142.884 4.85309C143.073 4.75533 143.279 4.69835 143.489 4.68552Z" fill="#231F20"/>
<path d="M148.097 3.46903H149.556V6.14406H152.343V3.46903H153.802V10.6549H152.343V7.52092H149.556V10.6549H148.097V3.46903Z" fill="#231F20"/>
<path d="M157.224 3.46903H155.704V10.6549H157.224V7.52092H160.139V10.6549H161.647V3.46903H160.139V6.14406H157.224V3.46903Z" fill="#231F20"/>
<path d="M169.416 3.46903H170.918V10.6287H169.416V3.46903Z" fill="#231F20"/>
<path fill-rule="evenodd" clip-rule="evenodd" d="M163.311 3.46903H164.85V6.08205C165.104 6.06299 165.359 6.06299 165.613 6.08205C167.802 6.08205 168.528 7.14035 168.528 8.34232C168.528 9.54436 167.84 10.6549 165.588 10.6549H163.336L163.311 3.46903ZM165.525 9.40062C166.776 9.40062 166.989 8.93028 166.989 8.34232C166.989 7.75443 166.701 7.29709 165.525 7.29709C165.292 7.2781 165.058 7.2781 164.825 7.29709V9.34836L165.525 9.40062Z" fill="#231F20"/>
<path d="M174.855 0H173.606C173.606 0.653467 173.853 1.28014 174.294 1.7422C174.734 2.20426 175.331 2.46384 175.953 2.46384C176.576 2.46384 177.173 2.20426 177.613 1.7422C178.053 1.28014 178.301 0.653467 178.301 0H177.052C177.052 0.720798 176.79 1.31056 175.966 1.31056C175.142 1.31056 174.855 0.681476 174.855 0Z" fill="#231F20"/>
<path d="M174.293 3.47296H172.819V10.6549H174.268L176.603 7.14259C176.912 6.66576 177.161 6.24387 177.357 5.91345C177.414 5.81708 177.466 5.72846 177.514 5.64854V10.6549H179V3.47296H177.552L175.217 6.9853C174.817 7.60126 174.505 8.09926 174.293 8.47935V3.47296Z" fill="#231F20"/>
<path fill-rule="evenodd" clip-rule="evenodd" d="M4.16534 23.6514C3.90962 23.9272 3.60486 24.1465 3.26865 24.2967C2.93245 24.4468 2.57149 24.5248 2.20665 24.5261C1.91736 24.5465 1.62727 24.5022 1.35517 24.3961C1.08306 24.29 0.835025 24.1245 0.627132 23.9104C0.41924 23.6962 0.256129 23.4381 0.148371 23.1528C0.0406052 22.8676 -0.00940013 22.5615 0.00159045 22.2545C-0.0140285 21.8491 0.0856847 21.4481 0.287781 21.1036C0.489877 20.759 0.785027 20.4868 1.13492 20.3222C1.6759 20.0611 2.2652 19.9317 2.85954 19.9436H4.09142V19.6303C4.09142 18.6903 3.53708 18.3247 2.73636 18.3247C2.10458 18.333 1.48536 18.5128 0.937821 18.8469L0.432748 17.8025C1.20506 17.3341 2.08062 17.0909 2.97041 17.0975C4.63345 17.0975 5.58199 17.9069 5.58199 19.7086V22.4634C5.54988 23.1407 5.59122 23.8197 5.70518 24.487H4.47331L4.16534 23.6514ZM3.05665 21.0403C2.68154 21.0271 2.30916 21.1123 1.9726 21.2884C1.82146 21.3754 1.69703 21.5065 1.61406 21.6661C1.53109 21.8258 1.49306 22.0073 1.50449 22.1892C1.49664 22.3417 1.52004 22.494 1.57307 22.636C1.62609 22.7779 1.70749 22.9061 1.81166 23.0115C1.91584 23.117 2.04031 23.1972 2.17654 23.2468C2.31278 23.2965 2.45753 23.3142 2.60085 23.2989C3.15246 23.2751 3.67556 23.0328 4.06679 22.6201V21.0011L3.05665 21.0403Z" fill="#231F20"/>
<path d="M12.1235 17.3451H7.36919V24.531H8.8634V18.7351H11.679L12.1235 17.3451Z" fill="#231F20"/>
<path fill-rule="evenodd" clip-rule="evenodd" d="M13.3121 17.5608C14.1188 17.2718 14.9658 17.1223 15.8191 17.1182C16.3065 17.0622 16.7997 17.1193 17.2631 17.2854C17.7266 17.4515 18.1487 17.7225 18.499 18.0788C18.8493 18.435 19.1189 18.8676 19.2885 19.3453C19.4581 19.823 19.5233 20.3338 19.4794 20.841C19.5079 21.3337 19.4365 21.8271 19.2698 22.2895C19.1031 22.7518 18.8448 23.1726 18.5116 23.5246C18.1784 23.8768 17.7778 24.1523 17.3356 24.3336C16.8934 24.5148 16.4195 24.5976 15.9445 24.5766C15.5691 24.5733 15.1967 24.5073 14.8414 24.3814V28H13.3372L13.3121 17.5608ZM15.8191 23.262C17.1855 23.262 17.9 22.2988 17.9 20.8279C17.9442 20.5145 17.9199 20.1948 17.8289 19.8925C17.7378 19.5902 17.5823 19.3131 17.374 19.0818C17.1657 18.8504 16.9098 18.6708 16.6254 18.5562C16.3411 18.4416 16.0355 18.395 15.7314 18.4199C15.4213 18.4209 15.113 18.4691 14.8163 18.5631V23.0407C15.1313 23.1888 15.4734 23.2643 15.8191 23.262Z" fill="#231F20"/>
<path fill-rule="evenodd" clip-rule="evenodd" d="M23.7063 24.2981C24.0446 24.148 24.3515 23.9281 24.609 23.6514L24.917 24.4869H26.1487C26.0348 23.8196 25.9935 23.1406 26.0256 22.4633V19.7086C26.0256 17.9069 25.0771 17.0975 23.4142 17.0975C22.5243 17.0897 21.6485 17.333 20.8767 17.8025L21.3817 18.847C21.9275 18.5083 22.5478 18.3282 23.1801 18.3247C23.9808 18.3247 24.5351 18.6903 24.5351 19.6303V19.9436H23.3033C22.709 19.9317 22.1197 20.0611 21.5788 20.3222C21.2289 20.4868 20.9338 20.759 20.7317 21.1036C20.5297 21.4481 20.43 21.8491 20.4456 22.2544C20.4328 22.5608 20.4812 22.8667 20.5875 23.1519C20.6938 23.4372 20.8558 23.6954 21.0627 23.9098C21.2696 24.1242 21.5169 24.2899 21.7884 24.3961C22.0599 24.5023 22.3494 24.5466 22.6381 24.5261C23.0049 24.5258 23.368 24.4483 23.7063 24.2981ZM22.4164 21.2883C22.753 21.1123 23.1253 21.0271 23.5004 21.0403L24.5105 21.0011V22.62C24.1193 23.0328 23.5962 23.275 23.0446 23.2989C22.9009 23.3165 22.7552 23.3003 22.618 23.2516C22.4808 23.2028 22.3555 23.1226 22.2508 23.0167C22.1462 22.9107 22.0648 22.7817 22.0125 22.6387C21.9603 22.4956 21.9383 22.3422 21.9484 22.1892C21.9369 22.0073 21.9749 21.8258 22.0579 21.6661C22.1409 21.5064 22.2653 21.3753 22.4164 21.2883Z" fill="#231F20"/>
<path fill-rule="evenodd" clip-rule="evenodd" d="M27.8505 17.5544C28.6606 17.2653 29.5111 17.1157 30.368 17.1116C30.8524 17.0658 31.3406 17.1306 31.7981 17.3015C32.2557 17.4723 32.6714 17.7449 33.0159 18.1002C33.3605 18.4555 33.6255 18.8847 33.7921 19.3575C33.9588 19.8303 34.0232 20.3352 33.9806 20.8366C34.0092 21.3296 33.9375 21.8234 33.7701 22.2859C33.6027 22.7485 33.3433 23.1696 33.0087 23.5219C32.6742 23.8742 32.2718 24.15 31.8278 24.3313C31.3838 24.5126 30.9079 24.5955 30.4309 24.5746C30.054 24.5712 29.68 24.5052 29.3233 24.3792V28H27.8128L27.8505 17.5544ZM30.368 23.2591C31.74 23.2591 32.4575 22.2953 32.4575 20.8235C32.502 20.51 32.4776 20.19 32.3861 19.8876C32.2947 19.5851 32.1385 19.3078 31.9293 19.0763C31.7201 18.8449 31.4632 18.6651 31.1777 18.5504C30.8921 18.4358 30.5853 18.3892 30.2799 18.414C29.9685 18.415 29.6589 18.4633 29.361 18.5573V23.0377C29.6773 23.1859 30.0208 23.2614 30.368 23.2591Z" fill="#231F20"/>
<path d="M36.9399 17.3451H35.4197V24.531H36.9399V21.397H39.8423V24.531H41.3626V17.3451H39.8423V20.007H36.9399V17.3451Z" fill="#231F20"/>
<path d="M49.1196 17.3582H50.6335V24.5179H49.1196V17.3582Z" fill="#231F20"/>
<path fill-rule="evenodd" clip-rule="evenodd" d="M43.0266 17.3451H44.5279V19.9629H45.2911C47.4806 19.9629 48.2063 21.0231 48.2063 22.2143C48.2063 23.4053 47.5306 24.531 45.2661 24.531H43.0266V17.3451ZM45.2411 23.2875C46.4922 23.2875 46.7049 22.8163 46.7049 22.2273C46.7049 21.6383 46.4171 21.1802 45.2411 21.1802H44.5279V23.2875H45.2411Z" fill="#231F20"/>
<path d="M54.5829 13.8761H53.3093C53.3527 14.4857 53.6195 15.0559 54.0561 15.4721C54.4927 15.8882 55.0668 16.1196 55.663 16.1196C56.2591 16.1196 56.8332 15.8882 57.2699 15.4721C57.7065 15.0559 57.9732 14.4857 58.0166 13.8761H56.768C56.768 14.5673 56.5058 15.1562 55.6817 15.1562C54.8576 15.1562 54.5829 14.5417 54.5829 13.8761Z" fill="#231F20"/>
<path d="M54.0085 17.2811H52.5352L52.5602 24.2832H53.9836L56.3185 20.8653C56.718 20.251 57.0302 19.7517 57.23 19.3933C57.2023 19.8878 57.2023 20.3836 57.23 20.8782V24.2832H58.7158V17.2811H57.2674L54.945 20.699C54.533 21.3134 54.2333 21.7998 54.0085 22.1711V17.2811Z" fill="#231F20"/>
<path d="M67.2935 24.7878C66.2857 27.6255 65.1772 27.9996 63.9679 27.9996C63.4699 28.0073 62.976 27.9062 62.5193 27.7029L62.8972 26.413C63.2119 26.5683 63.5557 26.6519 63.9049 26.6581C64.7237 26.6581 65.3788 26.0905 65.9204 24.3879L62.8342 17.3451H64.4592L66.6133 22.5692L68.3138 17.3451H69.8884L67.2935 24.7878Z" fill="#231F20"/>
<path d="M72.5244 17.3451H71.077V24.531H72.5244V21.397H75.3227V24.531H76.7822V17.3451H75.3227V20.007H72.5244V17.3451Z" fill="#231F20"/>
<path d="M78.7334 17.3451H80.2044V22.1904C80.4269 21.8226 80.7235 21.3405 81.1191 20.7317L83.4306 17.3451H84.8645V24.2832H83.4059V19.438C83.1958 19.7931 82.8991 20.2878 82.5035 20.8966L80.1178 24.2832H78.6839L78.7334 17.3451Z" fill="#231F20"/>
<path fill-rule="evenodd" clip-rule="evenodd" d="M89.1934 17.3451H86.5911L86.5286 24.2832H89.2685C91.3328 24.2832 91.9959 23.2648 91.9959 22.2973C92.0003 21.9271 91.8778 21.567 91.6495 21.2789C91.4211 20.9908 91.1012 20.7927 90.7448 20.7187C91.0777 20.6423 91.3744 20.4508 91.5842 20.177C91.7941 19.9031 91.9042 19.5637 91.8958 19.2165C91.8958 18.3126 91.2452 17.3451 89.1934 17.3451ZM90.6197 22.2463C90.6197 22.8828 90.1943 23.1884 89.3686 23.1884H88.0924V21.3043H89.4937C90.2318 21.3043 90.6197 21.6098 90.6197 22.2463ZM90.3945 19.3565C90.3945 19.9676 90.0191 20.2604 89.2935 20.2604H87.9798V18.4654H89.1434C90.0942 18.4654 90.3945 18.7455 90.3945 19.3565Z" fill="#231F20"/>
<path fill-rule="evenodd" clip-rule="evenodd" d="M94.7369 21.207C94.7259 21.4857 94.7714 21.7637 94.8702 22.0232C94.969 22.2826 95.119 22.5176 95.3106 22.713C95.5022 22.9084 95.731 23.06 95.9824 23.1579C96.2338 23.2557 96.5021 23.2977 96.77 23.2812C97.3742 23.2799 97.9676 23.1145 98.4914 22.8015L98.9404 23.8646C98.2388 24.3101 97.43 24.5394 96.6079 24.5258C96.1387 24.5529 95.6694 24.4737 95.2326 24.2938C94.7957 24.1138 94.4017 23.8373 94.0779 23.4834C93.754 23.1295 93.508 22.7067 93.3569 22.2443C93.2058 21.7818 93.1531 21.2907 93.2027 20.8051C93.2027 18.653 94.3377 17.0973 96.1963 17.0973C98.0548 17.0973 99.1275 18.5363 99.1275 20.831V21.207H94.7369ZM97.5933 20.092C97.5933 19.1976 97.1442 18.303 96.1713 18.303C95.9613 18.3176 95.7562 18.3758 95.5683 18.4744C95.3804 18.5729 95.2134 18.7097 95.0773 18.8765C94.9412 19.0433 94.8387 19.2369 94.776 19.4458C94.7132 19.6545 94.6914 19.8743 94.7119 20.092H97.5933Z" fill="#231F20"/>
<path fill-rule="evenodd" clip-rule="evenodd" d="M103.065 17.1185C102.211 17.1251 101.363 17.2745 100.554 17.561L100.566 28H102.086V24.3815C102.442 24.5074 102.815 24.5733 103.191 24.5768C103.666 24.5978 104.141 24.515 104.583 24.3337C105.025 24.1523 105.426 23.8765 105.759 23.5242C106.092 23.1719 106.349 22.7509 106.515 22.2887C106.68 21.8264 106.75 21.3331 106.72 20.8411C106.766 20.3347 106.702 19.824 106.534 19.3463C106.366 18.8685 106.097 18.4356 105.747 18.0791C105.397 17.7226 104.974 17.4514 104.511 17.2852C104.047 17.119 103.553 17.0621 103.065 17.1185ZM105.15 20.8281C105.15 22.2989 104.434 23.2621 103.065 23.2621C102.719 23.2657 102.376 23.1901 102.061 23.0408V18.5633C102.358 18.4674 102.667 18.4191 102.978 18.4201C103.282 18.3952 103.588 18.4418 103.873 18.5564C104.158 18.671 104.414 18.8506 104.623 19.0819C104.832 19.3133 104.988 19.5904 105.079 19.8927C105.17 20.195 105.194 20.5147 105.15 20.8281Z" fill="#231F20"/>
<path d="M114.592 17.3451H116.065V22.1904C116.277 21.8226 116.589 21.3405 116.989 20.7317L119.324 17.3451H120.76V24.2832H119.261V20.9093C119.234 20.4192 119.234 19.928 119.261 19.438C119.062 19.7931 118.762 20.2878 118.35 20.8966L116.027 24.2832H114.579L114.592 17.3451Z" fill="#231F20"/>
<path d="M121.948 18.6696H124.092V24.531H125.619V18.6696H127.7L128.129 17.3451H121.948V18.6696Z" fill="#231F20"/>
<path fill-rule="evenodd" clip-rule="evenodd" d="M130.393 21.207C130.382 21.4858 130.428 21.7638 130.527 22.0232C130.625 22.2827 130.775 22.5176 130.967 22.7131C131.159 22.9086 131.388 23.0601 131.639 23.1579C131.89 23.2558 132.159 23.2978 132.427 23.2813C133.032 23.2837 133.626 23.1181 134.149 22.8016L134.598 23.8647C133.9 24.3098 133.095 24.5392 132.277 24.5259C131.807 24.5527 131.338 24.4735 130.9 24.2936C130.463 24.1137 130.068 23.8375 129.743 23.4839C129.418 23.1302 129.171 22.7077 129.018 22.2452C128.865 21.7828 128.811 21.2915 128.859 20.8051C128.859 18.653 130.006 17.0973 131.853 17.0973C133.699 17.0973 134.785 18.5364 134.785 20.831V21.207H130.393ZM133.25 20.0921C133.25 19.1976 132.801 18.303 131.84 18.303C131.63 18.3158 131.424 18.3729 131.235 18.4709C131.046 18.5688 130.878 18.7055 130.742 18.8728C130.606 19.0401 130.503 19.2344 130.441 19.4439C130.379 19.6536 130.358 19.874 130.381 20.0921H133.25Z" fill="#231F20"/>
<path d="M135.736 18.6696H137.798V24.531H139.265V18.6696H141.266L141.679 17.3451H135.736V18.6696Z" fill="#231F20"/>
</svg>
