<svg xmlns="http://www.w3.org/2000/svg" width="31" height="31" fill="none" viewBox="0 0 31 31">
  <path fill="#000" d="M3.204 9.73c.167-.306.418-.445.726-.556C7.81 7.813 11.72 6.45 15.6 5.063c.251-.084.475-.084.726 0 3.936 1.388 7.873 2.75 11.81 4.138.419.14.614.39.614.75 0 .361-.195.611-.614.75l-11.81 4.167c-.196.083-.475.056-.698 0l-11.81-4.167a1.15 1.15 0 0 1-.614-.527v-.445Z"/>
  <path fill="#000" d="M8.453 13.924c.53.194 1.005.36 1.507.528 1.703.61 3.406 1.194 5.11 1.805.614.222 1.2.222 1.814 0 2.094-.75 4.216-1.5 6.31-2.25a4.6 4.6 0 0 1 .307-.083v3.083c0 .528-.195.917-.586 1.25-.642.528-1.396.806-2.15 1.028-1.843.528-3.713.722-5.612.639-1.591-.084-3.127-.306-4.606-.861-.503-.195-.978-.473-1.424-.75-.447-.306-.67-.75-.642-1.306v-3.083h-.028Zm18.51 11.556c0 .416-.363.75-.754.722a.743.743 0 0 1-.726-.75v-3.445c0-.11-.055-.25-.14-.305-.809-.611-.837-1.806 0-2.417a.395.395 0 0 0 .168-.333v-5.528c0-.167.028-.25.196-.306.39-.11.754-.25 1.145-.389 0 .14.055.278.055.417v5.722c0 .084.056.195.084.278.447.334.754.722.754 1.306 0 .527-.223.916-.614 1.222-.056.028-.084.083-.14.139-.028.055-.084.139-.084.194v3.223c0 .055.056.138.084.194l-.028.056Z"/>
  <path fill="#020202" d="M26.963 19.173s-.083-.194-.083-.277v-5.723c0-.139-.028-.277-.056-.416.028 0 .083-.028.14-.056v6.472Zm0 6.307s-.084-.14-.084-.195v-3.222c0-.056.056-.14.084-.195v3.611Z"/>
</svg>
