<svg xmlns="http://www.w3.org/2000/svg" width="63" height="63" fill="none" viewBox="0 0 63 63">
  <path fill="#000" d="M19.09 19.055c0-2.435.507-4.686 1.902-6.614 1.14-1.56 2.576-2.525 4.476-2.435 1.607.094 2.832 1.013 3.76 2.345 1.648 2.296 2.156 4.96 1.902 7.852-.17 2.063-.761 3.901-1.943 5.556-1.48 2.062-3.804 2.847-5.873 1.928a5.758 5.758 0 0 1-1.35-.875c-.94-.811-1.61-1.91-2.113-3.165-.592-1.471-.846-2.987-.846-4.592h.085Zm23.911 6.699c1.394-1.973 1.984-4.269 1.984-6.932h.044a7.134 7.134 0 0 1-.042-.516l-.03-.475a6.111 6.111 0 0 0-.054-.48c-.122-1.014-.343-1.987-.693-2.892a8.332 8.332 0 0 0-1.632-2.664c-1.31-1.377-2.873-2.067-4.688-1.605-1.52.412-2.661 1.466-3.466 2.892-1.984 3.578-2.069 7.3-.505 11.067.122.31.26.605.412.892.225.413.483.794.778 1.14a5.679 5.679 0 0 0 2.063 1.546c2.069.875 4.35.094 5.829-1.973Zm11.956 4.363c-.339 2.758-1.48 5.005-3.843 6.247-2.197 1.193-4.69.184-5.747-2.251-1.479-3.35-.17-8.126 2.704-10.054 2.79-1.883 5.999-.367 6.76 3.166.041.229.084.462.084.735 0 .108.009.216.023.323l.062.368v.87s-.043.412-.085.596h.042ZM31.85 28.602a11.767 11.767 0 0 1 5.776 1.48c.614.34 1.208.735 1.784 1.183 4.099 3.166 6.634 7.484 7.774 12.767.339 1.605.508 3.26.17 4.865-.467 2.157-1.774 3.4-3.72 3.856-1.815.413-3.632.184-5.447-.134-.58-.099-1.155-.21-1.731-.323-1.31-.251-2.61-.502-3.932-.596a7.279 7.279 0 0 0-.767-.014c-.334.01-.668.04-1.003.085l-.612.086-.532.09-.761.12c-.673.103-1.343.233-2.012.36-1.726.326-3.447.654-5.212.555-1.225-.09-2.407-.363-3.422-1.282-1.098-1.014-1.562-2.39-1.605-3.906-.066-2.323.355-4.57 1.106-6.704a24.31 24.31 0 0 1 .711-1.79c1.48-3.214 3.507-5.923 6.21-7.99a14.472 14.472 0 0 1 2.928-1.744c1.372-.597 2.791-.92 4.253-.92l.044-.044Zm-13.604 6.385c.718-1.058 1.056-2.296 1.097-3.583 0-.354-.024-.681-.051-1l-.033-.376c-.336-2.39-1.267-4.408-3.169-5.79-1.237-.905-2.597-1.116-3.789-.73-1.165.376-2.172 1.323-2.758 2.753a6.793 6.793 0 0 0-.528 2.278 9.262 9.262 0 0 0 .064 1.717c.339 2.386 1.267 4.363 3.125 5.74 2.071 1.56 4.606 1.103 6.042-1.009Z"/>
</svg>
