<svg xmlns="http://www.w3.org/2000/svg" width="31" height="31" fill="none" viewBox="0 0 31 31">
  <path fill="#000" d="M5.272 27.444s-.11-.083-.138-.11a.756.756 0 0 1-.304-.806c.083-.334.331-.528.662-.528h13.685c.552 0 .855.361.773.861-.055.278-.249.417-.47.556H5.3l-.028.027Zm1.821-2.916v-3.722c0-.417.303-.695.69-.723h9.38c.828 0 1.628-.194 2.318-.722 1.048-.833 1.462-1.944 1.297-3.25-.194-1.528-1.132-2.555-2.594-2.917a2.979 2.979 0 0 0-.69-.11h-2.069v1.5c0 .5-.276.777-.773.777h-4.47c-.496 0-.772-.305-.772-.778V7.056c0-.473.194-.667.745-.834V4.444c-.551-.11-.8-.416-.717-.888.055-.306.303-.556.634-.556h4.663c.359 0 .635.278.663.639a.726.726 0 0 1-.552.778h-.194v1.805c.552.14.746.361.746.806v1.528h2.234c2.87.138 5.05 1.5 6.567 3.944.827 1.333 1.159 2.833 1.103 4.417-.137 3.555-2.759 6.722-6.235 7.444a7.908 7.908 0 0 1-1.628.195H7.12l-.027-.028Zm5.352-13.695c0 1.195 1.021 2.223 2.235 2.223s2.235-1.028 2.235-2.223c0-1.277-.966-2.25-2.235-2.25s-2.235 1-2.235 2.278v-.028Z"/>
  <path fill="#000" d="M14.597 16.833v.723a.674.674 0 0 1-.662.666H10.79c-.36 0-.635-.277-.663-.666v-.75h4.442l.028.027Z"/>
  <path fill="#282726" d="m14.597 16.833-.027-.027.027.027Z"/>
  <path fill="#444242" d="m7.093 24.527.027.028-.027-.028Z"/>
  <path fill="#000" d="M15.48 10.806a.786.786 0 0 1-.8.806c-.469 0-.828-.362-.8-.834a.81.81 0 0 1 .828-.805c.469 0 .8.36.8.833h-.028Z"/>
</svg>
