<svg xmlns="http://www.w3.org/2000/svg" width="31" height="31" fill="none" viewBox="0 0 31 31">
  <path fill="#000" d="M4.363 15.773v-.527c0-.14 0-.278.028-.417v-.278c.083-1.11.331-2.167.718-3.194a11.41 11.41 0 0 1 12.233-7.25c2.237.305 4.225 1.166 5.882 2.694 3.424 3.111 4.667 6.972 3.618 11.5-.746 3.25-2.706 5.667-5.606 7.306-1.408.777-2.927 1.25-4.529 1.36h-.276c-.138 0-.276 0-.414.029h-.94s-.165-.028-.275-.056c-.608-.111-1.243-.139-1.85-.306-3.231-.833-5.634-2.75-7.263-5.666-.773-1.417-1.243-2.945-1.353-4.556v-.277c0-.14 0-.278-.028-.417l.055.055Zm11.847-6.5v1.75c0 .084.055.223.11.25 1.16.945 2.348 1.89 3.535 2.834.055.055.166.055.221.027 1.215-.388 2.43-.805 3.618-1.222.083 0 .138-.11.165-.194.249-1.028.497-2.084.718-3.111 0-.084 0-.167-.055-.25a10.853 10.853 0 0 0-4.225-3.611.468.468 0 0 0-.276 0c-1.215.472-2.458.972-3.673 1.472-.138.055-.165.111-.165.25v1.75l.027.055Zm-.828 0V7.496c0-.111-.028-.195-.138-.223-1.243-.5-2.486-.972-3.728-1.472-.083-.028-.166 0-.249 0a10.741 10.741 0 0 0-4.253 3.611c-.055.056-.055.167-.027.25.248 1.028.47 2.056.718 3.084 0 .083.11.166.193.194 1.187.417 2.375.806 3.562 1.222.11.056.194 0 .304-.055 1.16-.945 2.32-1.861 3.48-2.806.11-.083.138-.167.138-.305V9.273Zm-7.87 4.445a230.93 230.93 0 0 1-2.237 2.694c-.056.056-.083.167-.056.25.166 1.667.718 3.195 1.602 4.611.028.056.11.111.193.14 1.188.194 2.348.388 3.535.583.055 0 .166-.028.193-.084.58-.75 1.133-1.5 1.685-2.25a.517.517 0 0 0 .055-.194c-.359-1.417-.69-2.834-1.05-4.278 0-.083-.11-.167-.193-.194-1.242-.417-2.457-.834-3.728-1.25v-.028Zm16.568 0-3.728 1.25c-.055 0-.138.111-.165.166a193.598 193.598 0 0 0-1.05 4.278c0 .056 0 .14.028.195.552.75 1.132 1.527 1.712 2.277.028.056.11.084.166.084l3.562-.584c.055 0 .138-.055.166-.11a10.356 10.356 0 0 0 1.601-4.64c0-.083 0-.166-.055-.222-.745-.889-1.491-1.805-2.237-2.694Zm-12.758 8.75c.663 1.055 1.326 2.083 1.96 3.111.222.361.47.5.857.528h.166c1.298.194 2.596.11 3.866-.167.083 0 .165-.083.22-.167l1.823-3.166c.056-.111.056-.195 0-.278-.552-.722-1.104-1.472-1.657-2.195-.055-.055-.138-.11-.22-.11h-5.054c-.083 0-.166.055-.221.11-.58.75-1.132 1.528-1.74 2.306v.028Z"/>
  <path fill="#434140" d="M4.419 14.8s0 .279-.028.417v-.416h.028Zm-.056.973s0 .278.028.417h-.028v-.417Zm10.77 11.167h.415s-.277.028-.415.028v-.028Zm.939.056s.276 0 .415-.028v.028h-.415Z"/>
  <path fill="#858383" d="M4.419 14.801H4.39v-.278h.055v.278H4.42Zm-.055 1.361h.027v.278h-.055v-.278h.028ZM15.133 26.94v.028h-.276v-.056h.276v.028Zm1.353.056v-.028h.276v.028h-.276Z"/>
</svg>
